<svg xmlns="http://www.w3.org/2000/svg" viewBox="0 0 160.8 184.18"><defs><style>.cls-1{font-size:34.52px;font-family:STYuanti-SC-Regular, Yuanti SC;}.cls-1,.cls-2{fill:#fff;}</style></defs><title>Asset 4</title><g id="Layer_2" data-name="Layer 2"><g id="Layer_1-2" data-name="Layer 1"><text class="cls-1" transform="translate(2.41 172.72) scale(1.04 1)">voice<tspan x="78.56" y="0">lator</tspan></text><path class="cls-2" d="M143,70.07a68.15,68.15,0,0,1-16.46,46A69.37,69.37,0,0,1,82.8,139.58a71.78,71.78,0,0,1-25.53-1.38,70,70,0,0,1-23.5-10.56,72,72,0,0,1-29-42.32l9.11-2a64.19,64.19,0,0,0,44.91,49.21,66.65,66.65,0,0,0,23.54,2.37,65,65,0,0,0,23-6.26,66.45,66.45,0,0,0,32.6-34.63A67.92,67.92,0,0,0,143,70.07Z"/><polygon class="cls-2" points="19.8 86 7.79 70.07 0 88.43 19.8 86"/><path class="cls-2" d="M7.79,70.07A68.15,68.15,0,0,1,24.25,24.12,69.37,69.37,0,0,1,67.94.56,72,72,0,0,1,93.46,1.94,69.92,69.92,0,0,1,117,12.5a72,72,0,0,1,29,42.32l-9.11,2A64.19,64.19,0,0,0,92,7.57,66.65,66.65,0,0,0,68.43,5.2a65,65,0,0,0-23,6.26,66.45,66.45,0,0,0-32.6,34.63A67.92,67.92,0,0,0,7.79,70.07Z"/><polygon class="cls-2" points="130.94 54.14 142.95 70.07 150.74 51.71 130.94 54.14"/><path class="cls-2" d="M113.11,51.68a13.08,13.08,0,0,0-8.5-9.8c-5.88-1.74-27-2-29.4-2s-23.3,0-29.18,1.74h0c-4.14,1.31-7.41,5.23-8.5,9.8h0C36,58.22,36,71.72,36,72.37s0,13.94,1.52,20.91a13,13,0,0,0,8.5,9.8c5.88,1.75,27,2,29.4,2s23.3,0,29.18-1.74h0a13.07,13.07,0,0,0,8.5-9.8,3.59,3.59,0,0,0-2.18-4.35,3,3,0,0,0-3.7,2.39,6.64,6.64,0,0,1-4.14,4.79c-4.36,1.31-21.56,1.53-27.66,1.53-6.32,0-23.31-.22-27.66-1.75a6.23,6.23,0,0,1-4.14-4.79c-1.31-5.88-1.31-18.95-1.31-18.95,0-3.7.22-13.94,1.31-18.94a6.68,6.68,0,0,1,4.14-4.8c4.35-1.3,21.56-1.52,27.66-1.52,6.32,0,23.3.22,27.66,1.74a6.26,6.26,0,0,1,4.14,4.79c1.09,5,1.31,15.47,1.31,19v2.18a3.22,3.22,0,0,0,3,3.48h0a3.22,3.22,0,0,0,3-3.48v-2.4C114.85,71.94,114.85,58.43,113.11,51.68Z"/><path class="cls-2" d="M73.69,57.56a5.26,5.26,0,0,0-6.1,0,7,7,0,0,0-3,5.88V80.87a6.69,6.69,0,0,0,3,5.88,5.78,5.78,0,0,0,6.1,0L87,78a7,7,0,0,0,3-5.88,6.67,6.67,0,0,0-3-5.88ZM70.86,80.87v-17l12.85,8.49Z"/></g></g></svg>